<svg xmlns="http://www.w3.org/2000/svg" width="512px" height="512px" viewBox="0 0 512 512">
    <g transform="translate(0.000000,512.000000) scale(0.100000,-0.100000)" fill="#FD6F00"
        stroke="none">
        <path
            d="M2136 4945 c-53 -19 -106 -63 -130 -111 -19 -35 -21 -61 -26 -284 l-5 -244 -50 -19 c-27 -10 -81 -32 -118 -49 l-68 -32 -162 162 c-176 175 -216 202 -302 202 -93 0 -120 -21 -408 -308 -292 -291 -317 -325 -317 -416 1 -88 27 -127 202 -303 l162 -162 -32 -68 c-17 -37 -39 -90 -49 -118 l-19 -50 -244 -5 c-223 -5 -249 -7 -285 -26 -48 -25 -100 -90 -115 -142 -16 -59 -13 -787 4 -835 20 -54 61 -104 109 -130 39 -21 58 -22 287 -27 l244 -5 19 -50 c10 -27 32 -81 49 -118 l32 -68 -162 -162 c-175 -176 -202 -216 -202 -302 0 -93 21 -120 308 -408 291 -292 325 -317 416 -317 88 1 127 27 303 202 l162 162 68 -32 c37 -17 91 -39 118 -49 l50 -19 5 -244 c5 -223 7 -249 26 -285 25 -48 90 -100 142 -115 59 -16 787 -13 835 4 57 21 105 62 132 116 25 48 25 54 25 285 0 235 0 235 23 245 12 5 67 27 121 50 l99 41 161 -160 c175 -174 215 -200 301 -201 95 0 126 24 417 316 287 289 308 317 308 409 0 86 -27 126 -202 302 l-162 162 32 68 c17 37 39 91 49 118 l19 50 244 5 c229 5 248 6 287 27 48 26 89 76 109 130 17 48 20 776 4 835 -15 52 -67 117 -115 142 -36 19 -62 21 -285 26 l-244 5 -19 50 c-10 28 -32 81 -49 118 l-32 68 162 162 c175 176 201 215 202 303 0 81 -33 134 -178 277 -111 110 -133 127 -161 127 -43 0 -81 -38 -81 -81 0 -27 18 -50 130 -164 113 -115 130 -137 130 -165 0 -29 -21 -54 -190 -224 -124 -125 -190 -199 -190 -213 0 -11 20 -63 43 -114 24 -52 59 -136 77 -188 45 -126 31 -121 354 -121 l255 0 20 -26 c20 -26 21 -38 21 -394 0 -356 -1 -368 -21 -394 l-20 -26 -255 0 c-323 0 -309 5 -354 -121 -18 -52 -53 -136 -77 -188 -23 -51 -43 -103 -43 -114 0 -13 69 -90 190 -212 171 -173 190 -196 190 -226 0 -31 -24 -58 -268 -301 -244 -245 -270 -268 -301 -268 -31 0 -53 19 -225 190 -125 124 -199 190 -213 190 -11 0 -63 -20 -114 -43 -52 -24 -136 -59 -188 -77 -126 -45 -121 -31 -121 -354 l0 -255 -26 -20 c-26 -20 -38 -21 -394 -21 -356 0 -368 1 -394 21 l-26 20 0 255 c0 200 -3 262 -14 289 -8 19 -17 35 -19 35 -14 0 -208 75 -281 109 -49 22 -98 41 -109 41 -13 0 -91 -70 -212 -190 -173 -171 -196 -190 -226 -190 -31 0 -58 24 -301 268 -244 243 -268 270 -268 301 0 30 19 53 190 226 121 122 190 199 190 212 0 11 -20 63 -43 114 -24 52 -59 136 -77 188 -45 126 -31 121 -354 121 l-255 0 -20 26 c-20 26 -21 38 -21 394 0 356 1 368 21 394 l20 26 255 0 c323 0 309 -5 354 121 18 52 53 136 77 188 23 51 43 103 43 114 0 13 -69 90 -190 212 -171 173 -190 196 -190 226 0 31 24 58 268 301 243 244 270 268 301 268 30 0 53 -19 226 -190 122 -121 199 -190 212 -190 11 0 63 20 114 43 52 24 136 59 188 77 126 45 121 31 121 354 l0 255 26 20 c26 20 38 21 394 21 356 0 368 -1 394 -21 l26 -20 0 -255 c0 -323 -5 -309 121 -354 52 -18 136 -53 188 -77 51 -23 103 -43 114 -43 13 0 90 69 212 190 148 146 198 190 218 190 14 0 47 -11 74 -25 53 -28 84 -25 113 10 20 24 17 80 -5 106 -32 36 -114 69 -170 69 -86 -1 -126 -27 -302 -202 l-161 -161 -99 42 c-54 23 -108 46 -120 51 -23 10 -23 10 -23 245 0 231 0 237 -25 285 -27 54 -75 95 -132 116 -56 19 -791 19 -847 -1z" />
        <path
            d="M2375 3989 c-653 -90 -1164 -607 -1245 -1259 -33 -270 21 -575 145 -820 41 -81 94 -102 140 -55 33 33 32 72 -6 146 -146 290 -167 675 -54 989 67 184 157 323 304 471 183 183 375 290 635 351 124 29 390 31 516 4 260 -56 462 -167 651 -355 186 -185 300 -394 355 -651 26 -119 26 -381 0 -500 -55 -257 -169 -466 -355 -651 -237 -237 -514 -360 -846 -375 -345 -16 -670 105 -928 344 -97 90 -123 99 -171 61 -20 -15 -26 -29 -26 -57 0 -33 8 -45 86 -119 345 -332 863 -467 1335 -348 322 81 598 266 800 534 127 169 213 361 261 579 31 140 31 424 0 564 -48 219 -134 410 -262 580 -215 287 -530 484 -882 553 -99 20 -355 28 -453 14z" />
        <path
            d="M1951 3103 c-14 -13 -77 -175 -201 -520 -193 -537 -191 -530 -138 -567 12 -9 32 -16 44 -16 43 0 66 34 114 166 l47 129 183 0 182 0 45 -125 c46 -130 74 -170 117 -170 38 0 76 37 76 74 0 49 -346 1007 -371 1029 -12 9 -34 17 -49 17 -15 0 -37 -8 -49 -17z m108 -466 c30 -83 56 -158 59 -164 3 -10 -25 -13 -118 -13 -93 0 -121 3 -118 13 76 216 113 317 117 317 3 0 30 -69 60 -153z" />
        <path
            d="M2557 3100 l-27 -21 0 -519 0 -519 26 -20 c35 -28 67 -26 101 3 l28 24 3 215 3 215 177 4 c170 3 179 4 234 31 109 54 169 146 176 273 4 72 1 89 -21 137 -34 74 -88 131 -155 164 -57 28 -59 28 -287 31 -223 3 -232 3 -258 -18z m466 -154 c18 -7 46 -28 62 -45 27 -29 30 -38 30 -101 0 -63 -3 -72 -30 -101 -49 -52 -78 -59 -245 -59 l-150 0 0 160 0 160 150 0 c106 0 160 -4 183 -14z" />
        <path
            d="M3416 3099 l-26 -20 0 -519 0 -519 26 -20 c35 -28 67 -26 101 3 l28 24 0 512 0 512 -28 24 c-34 29 -66 31 -101 3z" />
    </g>
</svg>