<svg xmlns="http://www.w3.org/2000/svg" width="512px" height="512px" viewBox="0 0 512 512">
    <g transform="translate(0.000000,512.000000) scale(0.100000,-0.100000)" fill="#FD6F00"
        stroke="none">
        <path
            d="M835 4831 c-11 -5 -31 -21 -45 -36 l-25 -27 0 -1409 0 -1409 33 -32 32 -33 1730 0 1730 0 32 33 33 32 0 1410 0 1410 -33 32 -32 33 -1718 2 c-944 1 -1726 -2 -1737 -6z m3433 -83 c8 -8 12 -67 12 -200 l0 -188 -1720 0 -1720 0 0 188 c0 133 4 192 12 200 17 17 3399 17 3416 0z m-2548 -1628 l0 -1160 -428 0 c-320 0 -431 3 -440 12 -9 9 -12 280 -12 1160 l0 1148 440 0 440 0 0 -1160z m2560 12 c0 -880 -3 -1151 -12 -1160 -9 -9 -298 -12 -1240 -12 l-1228 0 0 1160 0 1160 1240 0 1240 0 0 -1148z" />
        <path
            d="M3395 4671 c-45 -20 -70 -60 -70 -112 0 -42 5 -53 33 -81 28 -28 39 -33 82 -33 43 0 54 5 82 33 28 28 33 39 33 82 0 42 -5 54 -31 81 -33 33 -92 46 -129 30z m75 -86 c26 -32 -13 -81 -47 -59 -35 22 -23 74 17 74 10 0 23 -7 30 -15z" />
        <path
            d="M3715 4671 c-45 -20 -70 -60 -70 -112 0 -42 5 -53 33 -81 28 -28 39 -33 82 -33 43 0 54 5 82 33 28 28 33 39 33 82 0 42 -5 54 -31 81 -33 33 -92 46 -129 30z m75 -86 c26 -32 -13 -81 -47 -59 -35 22 -23 74 17 74 10 0 23 -7 30 -15z" />
        <path
            d="M4035 4671 c-45 -20 -70 -60 -70 -112 0 -42 5 -53 33 -81 28 -28 39 -33 82 -33 43 0 54 5 82 33 28 28 33 39 33 82 0 42 -5 54 -31 81 -33 33 -92 46 -129 30z m75 -86 c26 -32 -13 -81 -47 -59 -35 22 -23 74 17 74 10 0 23 -7 30 -15z" />
        <path d="M960 4560 l0 -40 640 0 640 0 0 40 0 40 -640 0 -640 0 0 -40z" />
        <path d="M960 4000 l0 -40 320 0 320 0 0 40 0 40 -320 0 -320 0 0 -40z" />
        <path d="M960 3680 l0 -40 320 0 320 0 0 40 0 40 -320 0 -320 0 0 -40z" />
        <path d="M960 3360 l0 -40 320 0 320 0 0 40 0 40 -320 0 -320 0 0 -40z" />
        <path d="M960 3040 l0 -40 320 0 320 0 0 40 0 40 -320 0 -320 0 0 -40z" />
        <path d="M960 2720 l0 -40 320 0 320 0 0 40 0 40 -320 0 -320 0 0 -40z" />
        <path d="M960 2400 l0 -40 320 0 320 0 0 40 0 40 -320 0 -320 0 0 -40z" />
        <path
            d="M2795 4029 c-278 -28 -498 -101 -563 -187 l-27 -35 0 -687 0 -687 28 -36 c55 -73 227 -138 461 -174 156 -24 537 -24 693 0 235 37 404 101 460 174 l28 36 0 687 0 687 -28 36 c-55 72 -225 137 -449 172 -123 19 -476 28 -603 14z m618 -98 c193 -34 290 -68 352 -123 42 -36 44 -56 8 -90 -63 -59 -183 -100 -389 -134 -154 -26 -534 -26 -688 0 -204 34 -317 72 -381 128 -44 38 -44 58 0 96 64 57 184 97 376 126 157 24 168 24 394 21 157 -2 240 -8 328 -24z m-941 -381 c249 -69 597 -86 911 -45 145 19 254 48 345 90 l72 34 0 -103 c0 -99 -1 -103 -27 -128 -63 -59 -183 -100 -389 -134 -154 -26 -534 -26 -688 0 -204 34 -317 72 -381 128 l-35 30 0 104 0 104 59 -30 c33 -16 92 -39 133 -50z m43 -330 c166 -42 294 -55 540 -54 308 0 512 34 673 109 l72 34 0 -103 c0 -99 -1 -103 -27 -128 -63 -59 -183 -100 -389 -134 -154 -26 -534 -26 -688 0 -204 34 -317 72 -381 128 l-35 30 0 104 0 104 62 -31 c34 -17 112 -44 173 -59z m-43 -310 c249 -69 597 -86 911 -45 145 19 254 48 345 90 l72 34 0 -103 c0 -99 -1 -103 -27 -128 -63 -59 -183 -100 -389 -134 -154 -26 -534 -26 -688 0 -204 34 -317 72 -381 128 l-35 30 0 104 0 104 59 -30 c33 -16 92 -39 133 -50z m43 -330 c166 -42 294 -55 540 -54 308 0 512 34 673 109 l72 34 0 -103 c0 -99 -1 -103 -27 -128 -63 -59 -183 -100 -389 -134 -154 -26 -534 -26 -688 0 -204 34 -317 72 -381 128 l-35 30 0 104 0 104 62 -31 c34 -17 112 -44 173 -59z" />
        <path
            d="M412 4189 c-45 -13 -109 -79 -122 -128 -7 -27 -9 -472 -8 -1443 l3 -1403 24 -38 c13 -21 42 -50 64 -65 l41 -27 2145 0 2146 0 38 24 c21 13 50 42 65 64 l27 41 0 1426 0 1426 -27 41 c-47 71 -86 87 -215 92 l-113 3 0 -40 0 -40 105 -4 c103 -3 105 -4 137 -36 l33 -32 0 -1410 0 -1410 -33 -32 -32 -33 -2130 0 -2130 0 -32 33 -33 32 0 1410 0 1410 33 32 c32 32 34 33 137 36 l105 4 0 39 0 39 -97 -1 c-54 0 -113 -5 -131 -10z" />
        <path
            d="M515 4030 c-11 -4 -31 -20 -45 -35 l-25 -27 0 -1169 0 -1169 33 -32 32 -33 2050 0 2050 0 32 33 33 32 0 1170 0 1170 -32 32 c-29 28 -40 33 -98 36 l-65 4 0 -41 0 -41 48 0 c26 0 53 -5 60 -12 17 -17 17 -2279 0 -2296 -17 -17 -4039 -17 -4056 0 -17 17 -17 2279 0 2296 7 7 34 12 60 12 l48 0 0 40 0 40 -52 -1 c-29 0 -62 -4 -73 -9z" />
        <path
            d="M3875 1471 c-45 -20 -70 -60 -70 -112 0 -42 5 -53 33 -81 28 -28 39 -33 82 -33 43 0 54 5 82 33 28 28 33 39 33 82 0 42 -5 54 -31 81 -33 33 -92 46 -129 30z m75 -86 c26 -32 -13 -81 -47 -59 -35 22 -23 74 17 74 10 0 23 -7 30 -15z" />
        <path
            d="M4195 1471 c-44 -19 -70 -60 -70 -112 0 -42 5 -53 33 -81 l32 -33 210 0 210 0 32 33 c28 28 33 39 33 82 0 43 -5 54 -33 82 l-32 33 -198 2 c-108 1 -206 -2 -217 -6z m399 -93 c8 -13 8 -23 0 -35 -10 -16 -32 -18 -189 -21 -182 -3 -205 2 -205 37 0 38 18 42 204 39 158 -3 180 -5 190 -20z" />
        <path
            d="M2070 821 l-23 -139 -177 -4 c-172 -3 -178 -4 -217 -30 -22 -15 -51 -44 -64 -65 -21 -33 -24 -50 -24 -135 0 -97 0 -98 33 -130 l32 -33 930 0 930 0 32 33 c33 32 33 33 33 130 0 85 -3 102 -24 135 -13 21 -42 50 -64 65 -39 26 -45 27 -217 30 l-178 4 -11 76 c-34 216 -29 202 -66 202 -19 0 -36 -4 -40 -10 -3 -5 4 -63 15 -128 11 -66 20 -124 20 -131 0 -8 -115 -11 -430 -11 -315 0 -430 3 -430 11 0 7 9 65 20 131 11 65 18 123 15 128 -4 6 -21 10 -39 10 l-33 0 -23 -139z m1372 -258 c29 -30 33 -40 36 -103 3 -46 0 -75 -8 -85 -11 -13 -127 -15 -910 -15 -783 0 -899 2 -910 15 -8 10 -11 39 -8 84 4 73 25 112 73 132 11 4 397 7 857 6 l838 -2 32 -32z" />
    </g>
</svg>