<svg xmlns="http://www.w3.org/2000/svg" width="512px" height="512px" viewBox="0 0 512 512">
    <g transform="translate(0.000000,512.000000) scale(0.100000,-0.100000)" fill="#FD6F00"
        stroke="none">
        <path
            d="M538 5060 c-67 -12 -145 -58 -185 -109 -68 -89 -64 55 -61 -2071 3 -2174 -6 -1954 85 -2051 73 -78 115 -89 342 -89 l189 0 4 -202 3 -203 32 -66 c39 -80 120 -159 200 -197 l58 -27 1334 -3 c1193 -2 1341 -1 1390 14 116 32 217 126 262 241 19 51 23 82 27 251 l4 192 192 0 c190 0 191 0 252 29 36 17 75 45 97 71 72 85 67 -80 67 2059 0 1191 -3 1939 -9 1959 -22 76 -87 148 -166 184 l-50 23 -2010 1 c-1105 1 -2031 -2 -2057 -6z m4105 -143 c21 -16 46 -46 57 -67 19 -37 20 -59 20 -360 l0 -320 -2155 0 -2155 0 0 327 0 326 25 42 c16 28 39 50 67 64 l43 21 2031 -2 2031 -3 36 -28z m77 -2387 c0 -1355 -2 -1535 -15 -1567 -41 -98 -82 -113 -307 -113 l-178 0 0 248 c0 273 -11 352 -56 430 -41 69 -108 130 -182 165 l-67 32 -482 3 -483 3 0 434 0 435 68 0 c83 0 134 22 184 78 69 77 87 216 40 308 -11 21 -133 170 -272 329 -283 326 -305 345 -404 345 -107 0 -117 -9 -410 -347 -296 -340 -302 -349 -294 -471 5 -79 28 -132 80 -182 43 -43 93 -60 172 -60 l56 0 0 -435 0 -435 -458 0 c-496 0 -515 -2 -608 -56 -60 -35 -131 -115 -162 -182 l-27 -57 -3 -292 -3 -293 -175 0 c-186 0 -223 7 -272 53 -55 51 -52 -47 -52 1617 l0 1540 2155 0 2155 0 0 -1530z m-2103 1005 c27 -19 488 -548 514 -590 28 -44 26 -132 -4 -176 -33 -49 -60 -59 -164 -59 -70 0 -95 -4 -107 -16 -14 -14 -16 -72 -16 -490 l0 -474 -275 0 -275 0 0 468 c0 407 -2 470 -16 490 -14 20 -23 22 -110 22 -115 0 -147 13 -175 73 -23 52 -24 108 -3 150 22 42 476 566 516 595 36 26 84 29 115 7z m1306 -1937 c67 -30 114 -76 146 -140 l31 -61 0 -512 0 -512 -31 -62 c-21 -41 -46 -73 -77 -96 -90 -69 -8 -66 -1453 -63 l-1304 3 -50 27 c-60 31 -104 77 -136 138 l-24 45 0 520 0 520 24 45 c42 82 114 140 196 161 17 4 617 6 1335 6 1215 -2 1308 -3 1343 -19z" />
        <path
            d="M930 4800 c-125 -58 -187 -193 -146 -316 59 -179 292 -237 424 -105 122 122 98 313 -51 405 -64 39 -162 46 -227 16z m173 -117 c90 -45 87 -196 -4 -245 -90 -48 -201 6 -210 103 -5 55 2 81 34 115 48 53 110 62 180 27z" />
        <path
            d="M1565 4796 c-199 -92 -208 -356 -16 -460 102 -55 226 -33 304 54 52 56 67 96 67 173 0 187 -189 311 -355 233z m179 -115 c36 -20 66 -75 66 -119 0 -91 -93 -161 -184 -138 -71 18 -119 104 -97 176 27 92 128 130 215 81z" />
        <path
            d="M2217 4805 c-140 -52 -207 -214 -143 -350 25 -56 81 -110 135 -132 46 -20 146 -20 192 0 136 56 198 224 133 355 -57 115 -197 171 -317 127z m170 -125 c37 -24 66 -87 60 -131 -23 -170 -261 -171 -284 -1 -15 114 122 195 224 132z" />
        <path
            d="M3058 4608 c-30 -24 -31 -56 -4 -83 l25 -25 608 0 c468 0 614 3 633 13 31 16 39 61 14 88 -16 18 -39 19 -639 19 -482 0 -625 -3 -637 -12z" />
        <path
            d="M700 3787 c-35 -17 -40 -69 -8 -91 20 -14 86 -16 585 -16 550 0 563 0 583 20 26 26 25 46 -5 75 l-24 25 -553 0 c-424 0 -559 -3 -578 -13z" />
        <path
            d="M3280 3787 c-35 -18 -40 -69 -8 -91 20 -14 86 -16 585 -16 550 0 563 0 583 20 24 24 25 49 6 76 -14 18 -33 19 -578 21 -440 2 -568 0 -588 -10z" />
        <path
            d="M686 3494 c-20 -20 -20 -58 0 -78 14 -14 81 -16 589 -16 l575 0 17 26 c15 24 15 29 2 53 l-15 26 -576 3 c-514 2 -578 0 -592 -14z" />
        <path
            d="M3266 3494 c-21 -21 -20 -57 2 -77 17 -15 72 -17 589 -17 539 0 571 1 586 18 22 24 21 55 -1 75 -17 15 -72 17 -590 17 -505 0 -572 -2 -586 -16z" />
        <path
            d="M687 3212 c-20 -22 -22 -63 -5 -80 9 -9 116 -12 418 -12 382 0 408 1 423 18 21 23 21 41 1 70 l-15 22 -403 0 c-378 0 -404 -1 -419 -18z" />
        <path
            d="M3607 3212 c-19 -21 -21 -45 -7 -73 10 -18 26 -19 419 -19 382 0 409 1 424 18 22 24 21 55 -1 75 -17 15 -60 17 -419 17 -375 0 -401 -1 -416 -18z" />
        <path
            d="M2532 2594 c-22 -15 -22 -15 -22 -354 0 -339 0 -339 22 -354 30 -21 44 -20 68 4 19 19 20 33 20 350 0 317 -1 331 -20 350 -24 24 -38 25 -68 4z" />
        <path
            d="M2677 1478 c-11 -9 -66 -196 -167 -573 -82 -308 -150 -567 -150 -576 0 -21 32 -49 57 -49 11 0 27 8 36 18 12 13 251 875 312 1124 12 48 -47 86 -88 56z" />
        <path
            d="M1734 1175 c-159 -130 -297 -246 -308 -259 -12 -15 -16 -31 -11 -45 9 -31 600 -511 629 -511 27 0 56 29 56 56 0 26 -22 46 -295 270 -127 104 -232 193 -234 198 -1 4 91 85 206 178 300 245 323 266 323 292 0 28 -29 56 -57 56 -12 0 -143 -100 -309 -235z" />
        <path
            d="M3052 1403 c-20 -8 -34 -51 -22 -72 5 -10 126 -114 270 -231 143 -117 260 -216 259 -219 0 -3 -119 -102 -264 -220 -145 -118 -266 -222 -268 -232 -8 -31 16 -64 48 -67 26 -2 71 31 325 238 181 147 299 250 305 265 6 17 6 32 -1 43 -19 30 -605 502 -622 501 -9 0 -23 -3 -30 -6z" />
    </g>
</svg>