<svg xmlns="http://www.w3.org/2000/svg" viewBox="0 0 512.000000 512.000000">
    <g transform="translate(0.000000,512.000000) scale(0.100000,-0.100000)" fill="#FD6F00">
        <path
            d="M164 4481 c-47 -29 -54 -63 -54 -272 l0 -189 1415 0 1415 0 0 206 c0 122 -4 213 -10 225 -28 51 34 49 -1402 49 -1292 0 -1334 -1 -1364 -19z m434 -88 c51 -38 67 -70 67 -133 0 -66 -18 -99 -75 -137 -62 -43 -167 -23 -212 39 -22 32 -34 101 -24 142 8 34 54 86 91 102 40 19 120 12 153 -13z m408 6 c57 -27 86 -75 86 -139 0 -93 -64 -160 -154 -160 -113 0 -190 97 -159 200 31 104 129 147 227 99z m447 -12 c125 -95 59 -287 -98 -287 -41 0 -60 6 -92 29 -50 37 -67 76 -61 146 5 61 36 105 93 131 45 21 117 12 158 -19z m1273 -91 c21 -29 17 -63 -8 -80 -19 -14 -78 -16 -440 -16 -405 0 -419 1 -438 20 -27 27 -25 55 7 80 26 20 33 21 446 18 401 -3 419 -4 433 -22z" />
        <path
            d="M468 4276 c-9 -22 -8 -29 7 -46 35 -38 79 -16 73 37 -2 23 -8 29 -35 31 -27 3 -35 -1 -45 -22z" />
        <path d="M902 4288 c-32 -32 4 -87 48 -73 25 8 37 50 20 70 -15 18 -51 20 -68 3z" />
        <path
            d="M1322 4288 c-18 -18 -15 -43 8 -63 17 -15 24 -16 45 -7 25 11 31 34 19 66 -7 19 -55 21 -72 4z" />
        <path
            d="M3059 4456 c-2 -2 -2 -29 -1 -60 l4 -55 271 -3 c306 -3 312 -5 389 -85 45 -46 65 -93 74 -167 l7 -56 55 0 55 0 -5 74 c-11 176 -143 317 -323 346 -57 9 -517 14 -526 6z" />
        <path
            d="M3637 3914 c-19 -20 2 -57 100 -170 59 -68 112 -124 118 -124 6 0 60 56 119 125 153 177 158 169 -115 173 -118 1 -218 -1 -222 -4z" />
        <path
            d="M110 2903 c0 -930 1 -1000 18 -1033 9 -19 28 -40 42 -47 19 -10 232 -13 958 -13 l932 0 0 713 c0 466 4 725 11 750 13 47 60 102 110 128 36 18 62 19 399 19 l360 0 0 240 0 240 -1415 0 -1415 0 0 -997z m829 716 c13 -24 13 -29 -2 -53 l-17 -26 -295 0 c-318 0 -325 1 -325 55 0 55 6 56 328 53 l296 -3 15 -26z m915 15 c21 -20 20 -53 -1 -76 -15 -17 -41 -18 -398 -18 -283 0 -384 3 -393 12 -16 16 -16 70 0 86 9 9 110 12 394 12 334 0 385 -2 398 -16z m893 -10 c15 -24 15 -29 2 -53 l-15 -26 -368 -3 c-333 -2 -371 -1 -388 14 -22 21 -23 52 -1 76 15 17 40 18 384 18 l369 0 17 -26z m-1585 -351 c22 -19 23 -52 4 -79 -14 -18 -32 -19 -413 -22 -307 -1 -404 1 -423 11 -31 16 -39 61 -14 88 16 18 36 19 422 19 363 0 407 -2 424 -17z m790 0 c22 -19 23 -52 4 -79 -14 -18 -29 -19 -341 -19 l-327 0 -19 24 c-21 26 -18 58 9 79 12 9 95 12 336 12 283 0 321 -2 338 -17z m-727 -336 c14 -22 8 -49 -86 -403 -56 -208 -108 -387 -117 -396 -32 -37 -92 -12 -92 38 0 41 192 748 208 767 22 25 68 22 87 -6z m-451 -43 c9 -8 16 -28 16 -44 0 -24 -23 -47 -167 -165 -93 -75 -169 -140 -170 -143 -1 -4 74 -69 168 -145 146 -119 169 -142 169 -166 0 -33 -30 -64 -59 -59 -11 2 -113 79 -226 172 -194 159 -206 170 -203 199 3 27 30 53 207 199 207 170 233 185 265 152z m867 -142 c107 -87 200 -166 207 -175 7 -9 12 -28 10 -44 -2 -23 -41 -59 -207 -195 -113 -93 -214 -168 -225 -168 -29 0 -56 29 -56 60 0 24 25 48 168 165 92 75 168 140 170 144 1 4 -66 63 -150 131 -184 150 -188 154 -188 182 0 29 28 58 55 58 14 0 95 -59 216 -158z" />
        <path
            d="M2228 3294 c-15 -8 -32 -23 -38 -34 -6 -11 -10 -103 -10 -224 l0 -206 1415 0 1415 0 0 193 c0 210 -8 248 -60 274 -20 10 -312 13 -1360 12 -1159 0 -1339 -2 -1362 -15z m423 -87 c105 -70 106 -215 3 -274 -123 -71 -266 32 -240 172 19 102 152 159 237 102z m442 -10 c43 -32 72 -102 63 -149 -21 -109 -127 -167 -230 -124 -90 38 -120 167 -56 248 50 64 157 76 223 25z m408 10 c52 -35 79 -82 79 -137 0 -55 -27 -102 -79 -137 -70 -47 -165 -23 -218 56 -47 70 -23 165 56 218 23 16 49 23 81 23 32 0 58 -7 81 -23z m1277 -93 c14 -10 22 -26 22 -44 0 -60 -1 -60 -461 -60 l-418 0 -20 26 c-27 34 -26 40 4 69 l24 25 413 0 c358 0 417 -2 436 -16z" />
        <path
            d="M2548 3109 c-26 -14 -23 -65 3 -79 16 -9 26 -8 45 5 29 19 31 38 4 65 -23 23 -28 24 -52 9z" />
        <path d="M2969 3102 c-17 -14 -20 -25 -15 -45 11 -45 71 -47 82 -1 11 45 -31 74 -67 46z" />
        <path
            d="M3390 3100 c-11 -11 -20 -24 -20 -30 0 -5 9 -19 20 -30 11 -11 25 -20 30 -20 6 0 19 9 30 20 11 11 20 25 20 30 0 6 -9 19 -20 30 -11 11 -24 20 -30 20 -5 0 -19 -9 -30 -20z" />
        <path
            d="M2180 1699 c0 -674 3 -1017 10 -1030 28 -51 -34 -49 1400 -49 1476 0 1377 -5 1406 65 12 29 14 192 14 1030 l0 995 -1415 0 -1415 0 0 -1011z m816 687 c19 -26 18 -55 -3 -78 -15 -17 -38 -18 -306 -18 -256 0 -293 2 -309 17 -31 27 -18 81 22 96 8 3 142 5 298 4 268 -2 284 -3 298 -21z m910 -1 c18 -19 23 -31 19 -48 -14 -47 -17 -47 -407 -47 -355 0 -369 1 -388 20 -20 20 -25 47 -12 66 21 31 51 33 405 34 l358 0 25 -25z m900 1 c19 -26 18 -55 -3 -78 -15 -17 -40 -18 -380 -18 -350 0 -364 1 -383 20 -26 26 -25 46 5 76 l25 25 361 -3 c344 -3 361 -4 375 -22z m-1498 -358 c20 -20 15 -76 -7 -88 -13 -6 -176 -10 -462 -10 -398 0 -444 2 -461 17 -22 20 -23 56 -2 77 14 14 70 16 468 16 338 0 455 -3 464 -12z m749 -14 c15 -24 15 -29 2 -53 l-15 -26 -293 -3 c-263 -2 -296 -1 -313 14 -22 21 -23 52 -1 76 15 17 38 18 309 18 l294 0 17 -26z m751 14 c17 -17 15 -64 -4 -82 -13 -14 -56 -16 -311 -16 -262 0 -299 2 -315 17 -22 20 -23 51 -1 75 15 17 38 18 318 18 221 0 304 -3 313 -12z m-1526 -275 c10 -9 18 -22 18 -29 0 -35 -203 -760 -217 -776 -31 -34 -93 -10 -93 35 0 33 191 740 206 765 17 26 59 29 86 5z m-436 -58 c9 -14 13 -32 9 -44 -3 -11 -79 -80 -168 -152 -89 -73 -166 -135 -170 -139 -5 -4 64 -67 152 -139 89 -73 169 -143 178 -157 15 -24 15 -27 -4 -52 -11 -15 -29 -28 -40 -30 -14 -2 -83 48 -219 159 -110 89 -205 168 -211 177 -32 40 -19 56 195 231 222 183 245 196 278 146z m870 -142 c112 -92 206 -175 210 -185 3 -11 -1 -30 -10 -42 -23 -37 -406 -346 -427 -346 -25 0 -59 35 -59 60 0 25 15 39 198 188 78 64 142 120 142 124 0 4 -62 57 -137 119 -217 177 -226 187 -186 231 33 37 58 24 269 -149z m586 110 c10 -9 18 -26 18 -39 0 -51 -51 -69 -176 -62 -65 3 -79 7 -95 27 -21 26 -18 58 9 79 10 8 52 12 121 12 83 0 108 -3 123 -17z m500 0 c22 -19 23 -52 4 -79 -13 -18 -28 -19 -199 -19 -168 0 -187 2 -206 19 -25 23 -27 44 -5 74 15 21 20 22 201 22 159 0 189 -2 205 -17z m-4 -359 c30 -20 30 -68 0 -88 -19 -14 -72 -16 -371 -16 l-348 0 -24 25 c-30 29 -31 35 -4 69 l20 26 353 0 c302 0 355 -2 374 -16z" />
        <path
            d="M1146 1375 c-80 -93 -107 -130 -104 -147 l3 -23 220 0 220 0 3 23 c3 17 -24 54 -104 147 -59 69 -113 125 -119 125 -6 0 -60 -56 -119 -125z" />
        <path
            d="M1212 1016 c11 -176 144 -317 325 -346 56 -10 515 -14 524 -6 2 2 2 29 1 60 l-4 55 -271 3 c-306 3 -312 5 -389 85 -45 46 -65 93 -74 167 l-7 56 -55 0 -55 0 5 -74z" />
    </g>
</svg>