<svg xmlns="http://www.w3.org/2000/svg" width="512px" height="512px" viewBox="0 0 512 512">
    <g transform="translate(0.000000,512.000000) scale(0.100000,-0.100000)" fill="#FD6F00"
        stroke="none">
        <path
            d="M1666 4395 c-472 -211 -867 -392 -877 -401 -16 -14 -19 -32 -19 -109 0 -83 2 -94 23 -113 31 -29 72 -28 102 3 20 19 25 34 25 73 l0 49 188 83 c103 46 472 211 820 366 l633 282 819 -365 820 -366 0 -703 c0 -743 -3 -813 -50 -1027 -102 -468 -392 -931 -763 -1221 -120 -94 -529 -372 -595 -405 -146 -73 -324 -71 -472 4 -59 30 -478 317 -587 401 -166 129 -336 317 -459 504 -162 249 -260 491 -322 799 -24 124 -25 135 -29 676 -2 346 -7 560 -14 576 -10 26 -46 49 -75 49 -26 0 -64 -47 -64 -80 l0 -30 -103 0 c-100 0 -104 1 -115 24 -38 84 -139 142 -233 133 -67 -6 -106 -25 -153 -73 -72 -74 -84 -193 -28 -283 60 -98 193 -139 295 -91 48 22 100 73 119 116 11 23 15 24 115 24 l103 0 0 -250 0 -250 -154 0 c-149 0 -155 1 -161 21 -11 35 -77 101 -120 120 -48 22 -142 25 -188 6 -81 -34 -147 -130 -147 -213 0 -144 133 -261 274 -240 61 10 129 56 161 110 l27 46 152 0 153 0 6 -127 c6 -116 29 -301 43 -345 5 -17 -5 -18 -123 -18 l-129 0 -34 52 c-100 150 -317 135 -403 -27 -30 -56 -29 -155 0 -211 76 -144 266 -170 380 -54 17 18 37 45 43 61 l12 29 147 0 147 0 38 -112 c135 -406 420 -805 767 -1076 94 -73 513 -358 584 -398 182 -100 447 -101 629 0 71 38 443 291 561 380 332 251 597 600 753 992 22 55 48 126 57 157 l16 57 148 0 149 0 12 -29 c31 -75 122 -133 209 -133 139 0 235 96 235 232 0 95 -46 171 -129 213 -107 54 -253 9 -305 -93 l-20 -40 -131 0 c-120 0 -130 1 -125 18 14 43 37 229 43 345 l6 127 152 0 152 0 30 -49 c45 -71 108 -106 193 -106 42 0 78 7 102 19 83 40 138 129 138 220 0 83 -66 179 -147 213 -46 19 -140 16 -188 -6 -43 -19 -109 -85 -120 -120 -6 -20 -12 -21 -161 -21 l-154 0 0 250 0 250 104 0 104 0 12 -30 c16 -38 78 -95 126 -115 86 -36 214 -3 269 69 30 40 55 108 55 150 0 81 -58 174 -132 212 -54 28 -136 30 -196 4 -52 -22 -104 -71 -124 -116 -11 -23 -15 -24 -114 -24 l-104 0 -2 271 -3 272 -25 18 c-14 11 -409 190 -878 399 -575 256 -864 380 -885 379 -19 0 -373 -153 -891 -384z m-1271 -970 c53 -52 16 -145 -57 -145 -37 1 -59 14 -76 47 -19 35 -14 63 17 94 38 37 82 39 116 4z m4446 -4 c31 -31 36 -59 17 -94 -42 -80 -158 -52 -158 38 0 79 84 112 141 56z m-4546 -646 c54 -54 13 -145 -65 -145 -33 0 -80 53 -80 90 0 71 94 107 145 55z m4650 0 c35 -34 33 -78 -4 -116 -31 -31 -59 -36 -94 -17 -50 26 -62 86 -26 132 28 36 89 37 124 1z m-4572 -627 c33 -17 46 -39 47 -79 1 -99 -147 -111 -166 -14 -13 70 58 126 119 93z m4441 2 c89 -33 60 -165 -36 -162 -85 2 -109 119 -33 160 25 14 37 14 69 2z" />
        <path
            d="M1830 4141 c-393 -176 -725 -327 -738 -336 l-23 -17 4 -701 c4 -751 3 -738 58 -952 110 -430 373 -829 724 -1096 94 -71 495 -344 541 -367 95 -48 233 -48 328 0 46 23 450 297 541 367 367 281 628 686 735 1142 42 181 50 277 50 655 0 331 -1 362 -17 377 -33 29 -68 31 -99 4 l-29 -25 -6 -394 c-4 -235 -11 -419 -18 -458 -77 -420 -258 -762 -552 -1045 -115 -111 -155 -141 -439 -335 -248 -170 -288 -188 -373 -170 -55 11 -56 12 -337 205 -255 174 -315 222 -441 352 -228 235 -384 514 -464 831 -51 203 -55 260 -55 917 l0 610 671 298 670 298 669 -298 668 -298 4 -113 c3 -106 5 -115 27 -133 30 -25 76 -24 101 1 18 18 20 33 20 173 0 134 -2 156 -17 169 -22 19 -1454 658 -1474 658 -8 0 -336 -144 -729 -319z" />
        <path
            d="M2380 3899 c-203 -52 -370 -188 -463 -374 -59 -119 -69 -163 -76 -355 l-6 -175 -77 -5 c-82 -5 -112 -20 -152 -74 -20 -26 -21 -42 -24 -341 -3 -305 -2 -315 18 -335 27 -27 81 -27 106 1 18 20 19 42 22 310 l3 289 830 0 829 0 -2 -527 -3 -528 -825 0 -825 0 -5 92 c-6 105 -24 136 -79 136 -60 0 -71 -23 -71 -145 0 -116 8 -144 52 -185 58 -55 29 -53 930 -53 787 0 835 1 873 19 44 20 92 69 100 104 3 12 4 273 3 579 -3 544 -3 557 -24 584 -40 54 -70 69 -152 74 l-77 5 -6 175 c-5 140 -11 188 -28 240 -82 252 -284 440 -528 494 -99 22 -249 20 -343 -5z m323 -145 c181 -47 334 -187 397 -367 19 -51 23 -90 27 -229 l5 -168 -86 0 -86 0 0 120 c0 134 -12 204 -46 272 -145 288 -563 288 -708 0 -34 -68 -46 -138 -46 -272 l0 -120 -86 0 -86 0 5 168 c4 139 8 178 27 229 62 176 206 312 385 364 77 23 218 24 298 3z m-18 -338 c96 -57 129 -140 123 -316 l-3 -105 -245 0 -245 0 0 135 c0 125 2 139 25 184 28 55 79 101 136 122 59 22 153 13 209 -20z" />
        <path
            d="M2476 2655 c-86 -31 -149 -123 -149 -220 0 -88 40 -156 124 -209 25 -16 27 -22 31 -121 5 -122 18 -145 78 -145 60 0 73 22 78 146 4 101 6 105 31 119 73 38 124 124 124 210 0 164 -161 276 -317 220z m140 -159 c58 -49 20 -146 -56 -146 -16 0 -41 11 -56 24 -58 49 -20 146 56 146 16 0 41 -11 56 -24z" />
    </g>
</svg>